<svg width="527" height="419" viewBox="0 0 527 419" fill="none" xmlns="http://www.w3.org/2000/svg">
<g filter="url(#filter0_b_405_24)">
<rect width="178" height="284" rx="20" transform="matrix(0.866025 0.5 -0.866025 0.5 291.359 188)" fill="url(#paint0_linear_405_24)"/>
<rect x="-2.98023e-08" y="0.5" width="177" height="283" rx="19.5" transform="matrix(0.866025 0.5 -0.866025 0.5 291.792 188.25)" stroke="url(#paint1_linear_405_24)"/>
</g>
<g filter="url(#filter1_d_405_24)">
<rect x="-2.05613e-08" y="0.344961" width="177.31" height="283.558" rx="13.4535" transform="matrix(0.866025 0.5 -0.866025 0.5 309.873 106.172)" fill="url(#paint2_linear_405_24)" stroke="url(#paint3_linear_405_24)" stroke-width="0.689923"/>
<g opacity="0.9">
<rect opacity="0.75" x="4.47035e-08" y="-0.25" width="19.2897" height="19.2897" rx="9.64486" transform="matrix(-0.866025 -0.5 0.866026 -0.5 218.562 322.496)" stroke="url(#paint4_linear_405_24)" stroke-width="0.5"/>
<rect opacity="0.7" x="4.47035e-08" y="-0.25" width="19.2897" height="19.2897" rx="9.64486" transform="matrix(-0.866025 -0.5 0.866026 -0.5 208.216 316.522)" stroke="url(#paint5_linear_405_24)" stroke-width="0.5"/>
</g>
<g filter="url(#filter2_d_405_24)">
<path d="M113.587 240.924L107.263 243.118L106.26 242.539L109.106 239.662L104.123 241.305L103.119 240.726L106.919 237.075L107.816 237.592L104.575 240.473L109.802 238.739L110.705 239.26L107.701 242.278L112.691 240.407L113.587 240.924ZM114.09 245.793L111.953 244.559L110.469 244.969L109.594 244.464L116.442 242.663L117.381 243.206L114.255 247.155L113.38 246.65L114.09 245.793ZM114.491 245.296L116.019 243.446L112.814 244.328L114.491 245.296ZM119.723 247.356L119.393 250.121L118.396 249.546L118.741 247.037L116.396 248.391L115.579 247.919L120.641 244.997L121.458 245.469L119.142 246.806L123.465 246.628L124.455 247.199L119.723 247.356ZM127.793 253.415C127.544 253.558 127.253 253.658 126.918 253.713C126.588 253.765 126.237 253.758 125.864 253.692C125.491 253.626 125.128 253.491 124.774 253.286C124.43 253.088 124.182 252.875 124.029 252.649C123.881 252.42 123.835 252.195 123.893 251.974C123.95 251.753 124.11 251.553 124.373 251.374L125.248 251.879C125.052 252.02 124.956 252.182 124.961 252.367C124.97 252.555 125.114 252.729 125.391 252.889C125.64 253.032 125.898 253.104 126.165 253.104C126.438 253.107 126.679 253.048 126.89 252.926C127.071 252.821 127.169 252.707 127.184 252.583C127.203 252.456 127.172 252.33 127.09 252.206C127.009 252.082 126.882 251.92 126.71 251.722C126.495 251.481 126.337 251.275 126.237 251.101C126.141 250.93 126.12 250.749 126.173 250.558C126.225 250.368 126.407 250.183 126.717 250.004C126.99 249.846 127.296 249.747 127.635 249.706C127.975 249.664 128.324 249.684 128.682 249.764C129.045 249.841 129.389 249.973 129.714 250.161C130.231 250.459 130.515 250.767 130.568 251.084C130.625 251.404 130.474 251.693 130.116 251.949L129.234 251.44C129.392 251.31 129.464 251.164 129.449 251.001C129.444 250.838 129.315 250.684 129.062 250.538C128.833 250.405 128.589 250.333 128.331 250.322C128.077 250.309 127.841 250.365 127.621 250.492C127.449 250.591 127.353 250.702 127.334 250.823C127.32 250.942 127.351 251.062 127.427 251.183C127.513 251.305 127.64 251.464 127.807 251.659C128.027 251.902 128.185 252.112 128.281 252.289C128.386 252.465 128.41 252.65 128.352 252.843C128.3 253.039 128.113 253.23 127.793 253.415ZM133.824 252.608L130.82 254.342C130.37 254.602 130.134 254.852 130.11 255.092C130.091 255.335 130.26 255.559 130.619 255.766C130.973 255.971 131.357 256.066 131.773 256.052C132.194 256.041 132.629 255.906 133.078 255.646L136.082 253.912L136.9 254.384L133.895 256.118C133.202 256.518 132.497 256.719 131.78 256.719C131.068 256.716 130.418 256.545 129.83 256.205C129.247 255.869 128.955 255.496 128.955 255.088C128.96 254.676 129.309 254.271 130.002 253.871L133.006 252.136L133.824 252.608ZM137.602 260.634L136.784 260.162L138.06 256.586L134.325 258.742L133.508 258.27L138.562 255.352L139.38 255.824L138.089 259.409L141.839 257.244L142.656 257.716L137.602 260.634ZM143.423 262.729L141.287 261.495L139.803 261.905L138.928 261.4L145.775 259.599L146.714 260.141L143.588 264.091L142.714 263.586L143.423 262.729ZM143.825 262.232L145.352 260.382L142.147 261.263L143.825 262.232ZM147.572 266.391L148.332 264.495L147.751 264.159L145.729 265.327L144.912 264.855L149.974 261.932L151.759 262.963C152.338 263.297 152.634 263.631 152.648 263.965C152.668 264.302 152.445 264.604 151.982 264.871C151.585 265.1 151.148 265.223 150.67 265.24C150.196 265.259 149.714 265.168 149.221 264.967L148.49 266.921L147.572 266.391ZM148.332 263.824L149.236 264.346C149.895 264.727 150.517 264.749 151.1 264.412C151.377 264.252 151.511 264.081 151.501 263.899C151.501 263.717 151.332 263.527 150.992 263.332L150.089 262.81L148.332 263.824ZM155.794 265.292L150.732 268.215L149.914 267.743L154.976 264.82L155.794 265.292Z" fill="white"/>
</g>
<g filter="url(#filter3_d_405_24)">
<path d="M92.6816 245.415C92.0044 245.806 91.5882 246.175 91.4328 246.522C91.2775 246.869 91.4746 247.202 92.0243 247.519C92.574 247.836 93.1496 247.95 93.7511 247.861C94.3565 247.773 94.9978 247.534 95.675 247.143C96.3442 246.757 96.7545 246.389 96.9058 246.039C97.0612 245.692 96.864 245.36 96.3143 245.042C95.7646 244.725 95.189 244.611 94.5876 244.701C93.9901 244.788 93.3547 245.026 92.6816 245.415ZM95.1373 246.833C94.7907 247.033 94.474 247.186 94.1872 247.291C93.9084 247.397 93.6296 247.45 93.3508 247.45C93.0719 247.45 92.8011 247.374 92.5382 247.222C92.2793 247.073 92.1498 246.918 92.1498 246.757C92.1498 246.596 92.2394 246.434 92.4187 246.27C92.6059 246.107 92.8728 245.925 93.2193 245.725C93.5619 245.528 93.8726 245.376 94.1514 245.27C94.4342 245.166 94.713 245.116 94.9879 245.118C95.2667 245.118 95.5356 245.193 95.7945 245.342C96.0574 245.494 96.1888 245.651 96.1888 245.812C96.1928 245.97 96.1032 246.13 95.92 246.291C95.7407 246.454 95.4798 246.635 95.1373 246.833ZM99.6857 248.355C99.9048 248.192 100.012 248.031 100.008 247.872C100.012 247.713 99.8928 247.564 99.6499 247.423C99.3113 247.228 98.9229 247.155 98.4847 247.206C98.0506 247.259 97.5487 247.45 96.9791 247.779L96.764 247.91C97.0627 247.806 97.3893 247.776 97.7439 247.82C98.1024 247.861 98.427 247.966 98.7178 248.134C99.136 248.375 99.3372 248.637 99.3212 248.917C99.3093 249.2 99.0783 249.471 98.6281 249.731C98.3652 249.883 98.0745 249.991 97.7558 250.055C97.4411 250.118 97.1125 250.123 96.7699 250.073C96.4354 250.022 96.1107 249.906 95.796 249.724C95.1946 249.377 94.9695 249.029 95.1209 248.679C95.2762 248.332 95.6785 247.971 96.3278 247.596C97.0767 247.164 97.7578 246.908 98.3712 246.83C98.9926 246.752 99.5762 246.87 100.122 247.185C100.524 247.418 100.719 247.661 100.707 247.917C100.699 248.174 100.532 248.42 100.206 248.655L99.6857 248.355ZM96.2681 248.265C95.9773 248.433 95.816 248.623 95.7841 248.834C95.7602 249.046 95.9175 249.249 96.2561 249.445C96.5349 249.606 96.8397 249.687 97.1703 249.69C97.5049 249.69 97.8215 249.604 98.1203 249.431C98.4429 249.245 98.6042 249.055 98.6042 248.862C98.6082 248.666 98.4628 248.484 98.1681 248.313C98.0008 248.217 97.8076 248.144 97.5885 248.096C97.3694 248.048 97.1424 248.036 96.9074 248.062C96.6763 248.085 96.4632 248.152 96.2681 248.265ZM105.422 248.735L97.135 251.629L96.6092 251.325L104.89 248.428L105.422 248.735ZM100.487 251.901C101.618 252.03 102.61 252.083 103.463 252.06C104.319 252.035 104.94 251.911 105.327 251.688C105.566 251.55 105.695 251.404 105.715 251.249C105.743 251.095 105.622 250.94 105.351 250.784C105.072 250.623 104.771 250.553 104.449 250.573C104.13 250.592 103.807 250.686 103.481 250.856L102.943 250.546C103.441 250.291 103.947 250.166 104.46 250.173C104.978 250.178 105.444 250.3 105.859 250.539C106.253 250.767 106.46 251.008 106.48 251.263C106.5 251.519 106.317 251.758 105.93 251.981C105.612 252.165 105.183 252.292 104.646 252.364C104.116 252.435 103.554 252.463 102.961 252.447C102.375 252.43 101.822 252.384 101.3 252.309L103.439 253.543L102.991 253.802L100.093 252.129L100.487 251.901ZM105.682 252.92C105.005 253.311 104.588 253.68 104.433 254.028C104.278 254.375 104.475 254.707 105.024 255.025C105.574 255.342 106.15 255.456 106.751 255.366C107.357 255.279 107.998 255.04 108.675 254.649C109.344 254.262 109.755 253.894 109.906 253.545C110.061 253.198 109.864 252.865 109.314 252.548C108.765 252.231 108.189 252.117 107.588 252.206C106.99 252.294 106.355 252.532 105.682 252.92ZM108.137 254.338C107.791 254.538 107.474 254.691 107.187 254.797C106.909 254.903 106.63 254.956 106.351 254.956C106.072 254.956 105.801 254.88 105.538 254.728C105.279 254.579 105.15 254.423 105.15 254.262C105.15 254.101 105.24 253.939 105.419 253.776C105.606 253.613 105.873 253.431 106.219 253.231C106.562 253.033 106.873 252.881 107.151 252.776C107.434 252.672 107.713 252.621 107.988 252.624C108.267 252.624 108.536 252.699 108.795 252.848C109.057 253 109.189 253.156 109.189 253.317C109.193 253.476 109.103 253.636 108.92 253.797C108.741 253.96 108.48 254.14 108.137 254.338ZM107.547 255.978C108.679 256.106 109.67 256.159 110.523 256.136C111.379 256.111 112.001 255.987 112.387 255.764C112.626 255.626 112.755 255.48 112.775 255.326C112.803 255.172 112.682 255.016 112.411 254.86C112.132 254.699 111.831 254.629 111.509 254.65C111.19 254.668 110.867 254.762 110.541 254.932L110.003 254.622C110.501 254.367 111.007 254.243 111.521 254.249C112.039 254.254 112.505 254.376 112.919 254.615C113.313 254.843 113.52 255.084 113.54 255.339C113.56 255.595 113.377 255.834 112.991 256.057C112.672 256.241 112.244 256.369 111.706 256.44C111.176 256.511 110.614 256.539 110.021 256.523C109.435 256.507 108.882 256.461 108.36 256.385L110.499 257.62L110.051 257.878L107.153 256.205L107.547 255.978ZM111.421 257.58L111.875 257.317L116.859 256.938L117.444 257.276L114.642 258.894L115.263 259.253L114.791 259.525L114.17 259.166L113.202 259.725L112.652 259.408L113.62 258.849L111.421 257.58ZM116.267 257.362L112.467 257.638L114.128 258.597L116.267 257.362Z" fill="white" fill-opacity="0.7" shape-rendering="crispEdges"/>
</g>
<rect x="-2.98023e-08" y="0.5" width="23.8605" height="18.0421" rx="1.5" transform="matrix(0.866025 0.5 -0.866025 0.5 211.039 239.822)" stroke="white"/>
<g style="mix-blend-mode:overlay">
<path d="M199.403 259.599C198.205 259.44 195.741 258.763 195.47 257.333M197.777 262.164C195.919 261.89 191.966 260.726 191.018 258.27M196.559 264.566C194.084 264.175 188.714 262.529 187.034 259.078M194.826 266.91C191.811 266.499 185.218 264.557 182.967 260.076" stroke="white" stroke-width="1.37985" stroke-linecap="round" stroke-linejoin="round"/>
</g>
</g>
<g filter="url(#filter4_d_405_24)">
<g filter="url(#filter5_b_405_24)">
<rect width="178" height="284.248" rx="13.7985" transform="matrix(0.866025 0.5 -0.866025 0.5 284.166 14)" fill="url(#paint6_linear_405_24)"/>
<rect x="-2.05613e-08" y="0.344961" width="177.31" height="283.558" rx="13.4535" transform="matrix(0.866025 0.5 -0.866025 0.5 284.465 14.1725)" stroke="url(#paint7_linear_405_24)" stroke-width="0.689923"/>
</g>
<g filter="url(#filter6_b_405_24)">
<path d="M127.624 104.38L281.776 193.38L216.052 231.326C204.786 237.83 199.153 241.083 192.152 241.083C185.152 241.083 179.519 237.83 168.253 231.326L61.8996 169.923C50.6332 163.418 45 160.166 45 156.124C45 152.083 50.6332 148.83 61.8996 142.326L127.624 104.38Z" fill="url(#paint8_linear_405_24)"/>
</g>
<path d="M359.15 87.3961L351.557 91.7798L350.029 90.8981L353.331 88.9919L350.083 87.1167L346.781 89.0229L345.265 88.1474L352.858 83.7636L354.374 84.6391L351.298 86.415L354.546 88.2902L357.622 86.5143L359.15 87.3961ZM361.719 90.6801C362.299 91.0154 362.697 91.3859 362.913 91.7916C363.135 92.2014 363.146 92.6174 362.945 93.0396C362.751 93.4577 362.343 93.8469 361.719 94.207C361.095 94.5671 360.421 94.8031 359.697 94.9149C358.973 95.0266 358.252 95.0204 357.535 94.8962C356.832 94.772 356.191 94.5423 355.61 94.207C355.029 93.8717 354.628 93.4991 354.405 93.0893C354.198 92.6795 354.19 92.2656 354.384 91.8475C354.578 91.4294 354.986 91.0403 355.61 90.6801C356.234 90.32 356.908 90.084 357.632 89.9723C358.363 89.8563 359.08 89.8605 359.783 89.9847C360.493 90.113 361.138 90.3448 361.719 90.6801ZM360.407 91.4376C359.984 91.1934 359.475 91.0734 358.879 91.0775C358.292 91.0775 357.714 91.241 357.148 91.568C356.582 91.8951 356.295 92.2304 356.288 92.5739C356.288 92.9134 356.499 93.2052 356.922 93.4495C357.345 93.6937 357.851 93.8158 358.439 93.8158C359.034 93.8117 359.614 93.6461 360.181 93.3191C360.747 92.992 361.03 92.6588 361.03 92.3194C361.038 91.9758 360.83 91.6819 360.407 91.4376ZM368.598 94.6519C369.179 94.9872 369.577 95.3577 369.792 95.7633C370.014 96.1732 370.025 96.5892 369.824 97.0114C369.631 97.4295 369.222 97.8186 368.598 98.1788C367.974 98.5389 367.3 98.7749 366.576 98.8866C365.852 98.9984 365.131 98.9922 364.414 98.868C363.712 98.7438 363.07 98.5141 362.489 98.1788C361.909 97.8435 361.507 97.4709 361.285 97.0611C361.077 96.6513 361.07 96.2373 361.263 95.8192C361.457 95.4011 361.866 95.012 362.489 94.6519C363.113 94.2917 363.787 94.0558 364.511 93.944C365.243 93.8281 365.96 93.8323 366.662 93.9564C367.372 94.0848 368.017 94.3166 368.598 94.6519ZM367.286 95.4094C366.863 95.1652 366.354 95.0451 365.759 95.0493C365.171 95.0493 364.594 95.2128 364.027 95.5398C363.461 95.8668 363.174 96.2021 363.167 96.5457C363.167 96.8852 363.378 97.177 363.801 97.4212C364.224 97.6655 364.73 97.7876 365.318 97.7876C365.913 97.7834 366.494 97.6179 367.06 97.2908C367.627 96.9638 367.91 96.6306 367.91 96.2911C367.917 95.9476 367.709 95.6536 367.286 95.4094Z" fill="white"/>
<path d="M374.843 100.704C375.208 101.023 375.355 101.36 375.284 101.716C375.226 102.072 374.968 102.382 374.509 102.647C373.871 103.016 373.151 103.183 372.348 103.15C371.559 103.117 370.76 102.867 369.949 102.399L366.691 100.517L374.284 96.1337L377.478 97.9779C378.245 98.4208 378.664 98.8575 378.736 99.288C378.815 99.7227 378.55 100.116 377.94 100.468C377.467 100.741 376.954 100.892 376.402 100.921C375.857 100.954 375.338 100.882 374.843 100.704ZM372.617 98.8472L373.982 99.6358C374.362 99.8552 374.732 99.9731 375.09 99.9897C375.463 100.006 375.807 99.9235 376.123 99.7413C376.438 99.5592 376.585 99.3626 376.564 99.1514C376.542 98.9403 376.331 98.7189 375.929 98.487L374.585 97.7109L372.617 98.8472ZM370.885 101.511C371.287 101.743 371.681 101.871 372.068 101.896C372.462 101.917 372.828 101.83 373.165 101.635C373.502 101.441 373.649 101.227 373.606 100.996C373.577 100.764 373.362 100.532 372.961 100.3L371.53 99.4743L369.444 100.679L370.885 101.511ZM381.874 102.317C382.376 102.607 382.688 102.923 382.81 103.267C382.932 103.61 382.867 103.942 382.616 104.26L383.853 103.546L385.359 104.416L379.401 107.856L377.895 106.986L379.142 106.266C378.59 106.411 378.013 106.45 377.411 106.384C376.816 106.314 376.267 106.134 375.765 105.844C375.264 105.554 374.934 105.223 374.776 104.85C374.618 104.478 374.654 104.093 374.884 103.695C375.127 103.298 375.561 102.919 376.185 102.559C376.809 102.199 377.461 101.951 378.142 101.814C378.838 101.677 379.508 101.655 380.153 101.746C380.799 101.837 381.372 102.027 381.874 102.317ZM381.025 103.354C380.551 103.081 380.017 102.95 379.422 102.963C378.827 102.975 378.261 103.137 377.723 103.447C377.185 103.757 376.905 104.084 376.884 104.428C376.87 104.767 377.099 105.074 377.572 105.347C378.031 105.612 378.562 105.74 379.164 105.732C379.781 105.724 380.351 105.568 380.874 105.266C381.405 104.96 381.673 104.631 381.681 104.279C381.702 103.927 381.483 103.619 381.025 103.354ZM390.368 107.208C391.056 107.606 391.379 108.053 391.336 108.55C391.293 109.046 390.863 109.531 390.046 110.003L386.582 112.002L385.077 111.133L388.368 109.233C388.841 108.959 389.085 108.678 389.099 108.388C389.121 108.094 388.92 107.825 388.497 107.581C388.067 107.333 387.583 107.215 387.045 107.227C386.507 107.239 385.977 107.397 385.453 107.699L382.291 109.525L380.775 108.649L386.733 105.209L388.249 106.085L387.056 106.774C387.615 106.633 388.185 106.602 388.766 106.681C389.361 106.759 389.895 106.935 390.368 107.208ZM391.401 114.784L392.036 112.145L389.433 113.648L387.917 112.772L395.875 108.177L397.392 109.053L392.918 111.636L397.349 111.338L399.145 112.375L393.671 112.642L393.251 115.852L391.401 114.784Z" fill="#5CE1E6"/>
<path d="M347.502 72.2643C345.611 71.1726 343.202 70.4292 340.58 70.128C337.957 69.8269 335.239 69.9814 332.768 70.5722C330.298 71.163 328.186 72.1635 326.701 73.4471C325.215 74.7307 324.422 76.2398 324.422 77.7836C324.422 79.3274 325.215 80.8366 326.701 82.1202C328.186 83.4038 330.298 84.4043 332.768 84.995C335.239 85.5858 337.957 85.7404 340.58 85.4392C343.202 85.1381 345.611 84.3946 347.502 83.303L342.722 80.5433C341.777 81.0891 340.572 81.4608 339.261 81.6114C337.949 81.762 336.59 81.6847 335.355 81.3893C334.12 81.0939 333.064 80.5937 332.321 79.9519C331.579 79.3101 331.182 78.5555 331.182 77.7836C331.182 77.0117 331.579 76.2572 332.321 75.6154C333.064 74.9735 334.12 74.4733 335.355 74.1779C336.59 73.8825 337.949 73.8052 339.261 73.9558C340.572 74.1064 341.777 74.4781 342.722 75.0239L347.502 72.2643Z" fill="white"/>
<path d="M347.502 72.2643C346.246 71.5394 344.756 70.9645 343.116 70.5722C341.475 70.1799 339.717 69.9781 337.942 69.9781C336.167 69.9781 334.409 70.1799 332.768 70.5722C331.128 70.9645 329.638 71.5394 328.382 72.2643L333.162 75.0239C333.79 74.6615 334.535 74.3741 335.355 74.1779C336.175 73.9818 337.054 73.8808 337.942 73.8808C338.83 73.8808 339.709 73.9818 340.529 74.1779C341.349 74.3741 342.094 74.6615 342.722 75.0239L347.502 72.2643Z" fill="#5CE1E6"/>
<circle cx="3.44961" cy="3.44961" r="3.44961" transform="matrix(0.866025 0.5 -0.866025 0.5 337.942 74.334)" fill="#5CE1E6"/>
<path d="M340.929 79.5084C341.322 79.2819 341.633 79.013 341.845 78.7171C342.058 78.4211 342.167 78.1039 342.167 77.7836C342.167 77.4633 342.058 77.1461 341.845 76.8501C341.633 76.5542 341.322 76.2853 340.929 76.0588C340.537 75.8323 340.071 75.6526 339.559 75.53C339.046 75.4074 338.497 75.3444 337.942 75.3444C337.387 75.3444 336.838 75.4074 336.325 75.53C335.813 75.6526 335.347 75.8323 334.955 76.0588L337.942 77.7836L340.929 79.5084Z" fill="white"/>
<g opacity="0.9">
<rect opacity="0.75" x="4.47035e-08" y="-0.25" width="19.2897" height="19.2897" rx="9.64486" transform="matrix(-0.866025 -0.5 0.866026 -0.5 193.154 230.496)" stroke="url(#paint9_linear_405_24)" stroke-width="0.5"/>
<rect opacity="0.7" x="4.47035e-08" y="-0.25" width="19.2897" height="19.2897" rx="9.64486" transform="matrix(-0.866025 -0.5 0.866026 -0.5 182.808 224.522)" stroke="url(#paint10_linear_405_24)" stroke-width="0.5"/>
</g>
<g filter="url(#filter7_d_405_24)">
<path d="M288.501 37.3621L289.652 38.0265L287.222 39.4298L279.629 35.046L280.919 34.3009L287.361 38.0203L288.501 37.3621ZM282.902 39.8871C283.275 40.1023 283.515 40.3569 283.623 40.6508C283.73 40.9447 283.68 41.2593 283.472 41.5946C283.257 41.9341 282.87 42.2652 282.31 42.5881C281.751 42.911 281.181 43.1325 280.6 43.2525C280.013 43.3767 279.464 43.4077 278.955 43.3456C278.439 43.2877 277.994 43.1511 277.621 42.9358C277.205 42.6957 276.958 42.4246 276.879 42.1224C276.793 41.8244 276.897 41.5118 277.191 41.1848C276.56 41.3752 275.947 41.4477 275.352 41.4021C274.764 41.3607 274.23 41.2014 273.75 40.924C273.011 40.4976 272.696 40.0133 272.803 39.471C272.918 38.9329 273.398 38.4196 274.244 37.9311C275.09 37.4427 275.979 37.1653 276.912 37.0991C277.844 37.0411 278.679 37.2253 279.417 37.6517C279.898 37.9291 280.174 38.2375 280.246 38.5769C280.324 38.9205 280.199 39.2744 279.869 39.6387C280.436 39.469 280.98 39.4069 281.504 39.4524C282.02 39.5021 282.486 39.647 282.902 39.8871ZM281.493 40.4769C281.106 40.2534 280.679 40.152 280.213 40.1727C279.747 40.2017 279.296 40.3424 278.858 40.5949C278.421 40.8474 278.177 41.1082 278.127 41.3773C278.084 41.6505 278.256 41.8989 278.643 42.1224C279.03 42.3459 279.464 42.4432 279.944 42.4142C280.418 42.3894 280.869 42.2528 281.299 42.0044C281.73 41.7561 281.966 41.4953 282.009 41.2221C282.052 40.9489 281.88 40.7005 281.493 40.4769ZM278.288 38.3782C277.851 38.1257 277.36 38.0119 276.815 38.0367C276.277 38.0657 275.757 38.225 275.255 38.5148C274.753 38.8046 274.477 39.1047 274.427 39.4152C274.384 39.7298 274.581 40.0133 275.019 40.2658C275.463 40.5225 275.951 40.626 276.481 40.5763C277.012 40.5349 277.517 40.3755 277.998 40.0982C278.471 39.825 278.747 39.5331 278.826 39.2227C278.905 38.9122 278.726 38.6307 278.288 38.3782ZM274.568 47.0083C274.067 47.298 273.547 47.4947 273.009 47.5981C272.478 47.7058 271.969 47.7223 271.482 47.6478C270.987 47.5774 270.55 47.4326 270.17 47.2132C269.689 46.9358 269.424 46.6254 269.374 46.2818C269.324 45.9465 269.51 45.6194 269.933 45.3007L269.879 45.2697C269.205 45.4849 268.571 45.5905 267.976 45.5863C267.381 45.5905 266.821 45.4414 266.298 45.1393C265.66 44.7708 265.352 44.3486 265.373 43.8726C265.402 43.4007 265.81 42.937 266.599 42.4817C267.409 42.0139 268.266 41.7552 269.17 41.7055C270.08 41.66 270.976 41.8504 271.858 42.2768L270.643 42.9784C270.17 42.7549 269.671 42.6452 269.148 42.6493C268.632 42.6576 268.148 42.7921 267.696 43.0529C267.273 43.2972 267.062 43.5476 267.062 43.8043C267.054 44.065 267.227 44.2969 267.578 44.4997C268.001 44.7439 268.488 44.835 269.041 44.7729C269.585 44.715 270.166 44.508 270.783 44.152L271.073 43.9843L272.084 44.568L271.794 44.7357C270.611 45.4021 270.424 45.9692 271.234 46.437C271.586 46.6398 271.969 46.7371 272.385 46.7288C272.801 46.7206 273.195 46.6088 273.568 46.3935C273.941 46.1783 274.138 45.932 274.16 45.6546C274.188 45.3814 274.013 45.1061 273.633 44.8288L274.837 44.1334C275.533 44.5928 275.859 45.071 275.816 45.5677C275.78 46.0686 275.364 46.5488 274.568 47.0083ZM267.107 51.316C266.605 51.6057 266.086 51.8024 265.548 51.9058C265.017 52.0135 264.508 52.03 264.021 51.9555C263.526 51.8851 263.089 51.7403 262.709 51.5209C262.228 51.2435 261.963 50.9331 261.913 50.5895C261.863 50.2542 262.049 49.9271 262.472 49.6084L262.418 49.5774C261.744 49.7926 261.11 49.8982 260.515 49.894C259.92 49.8982 259.36 49.7491 258.837 49.447C258.199 49.0785 257.89 48.6563 257.912 48.1803C257.941 47.7084 258.349 47.2447 259.138 46.7894C259.948 46.3216 260.805 46.0629 261.708 46.0132C262.619 45.9677 263.515 46.1581 264.397 46.5845L263.182 47.2861C262.709 47.0626 262.21 46.9529 261.687 46.957C261.171 46.9653 260.687 47.0998 260.235 47.3606C259.812 47.6049 259.6 47.8553 259.6 48.112C259.593 48.3728 259.765 48.6046 260.117 48.8074C260.54 49.0516 261.027 49.1427 261.579 49.0806C262.124 49.0227 262.705 48.8157 263.322 48.4597L263.612 48.292L264.623 48.8757L264.333 49.0434C263.15 49.7098 262.963 50.2769 263.773 50.7447C264.125 50.9475 264.508 51.0448 264.924 51.0365C265.34 51.0283 265.734 50.9165 266.107 50.7012C266.48 50.486 266.677 50.2397 266.699 49.9623C266.727 49.6891 266.552 49.4138 266.172 49.1365L267.376 48.4411C268.072 48.9005 268.398 49.3787 268.355 49.8754C268.319 50.3763 267.903 50.8565 267.107 51.316ZM252.985 58.178L249.102 52.6704L250.393 51.9253L254.093 57.377L257.857 55.2038L258.922 55.8185L253.91 58.712L252.985 58.178ZM251.223 58.8849L252.374 59.5493L249.943 60.9526L242.35 56.5688L243.641 55.8237L250.083 59.543L251.223 58.8849ZM241.375 63.5396C242.35 63.9536 243.214 63.9432 243.967 63.5086C244.512 63.194 244.702 62.8317 244.537 62.4219C244.379 62.0163 243.838 61.5464 242.913 61.0124L242.537 60.8075C242.816 61.0931 242.892 61.4057 242.763 61.7451C242.634 62.0846 242.325 62.395 241.838 62.6765C241.092 63.107 240.285 63.3161 239.418 63.3037C238.55 63.2912 237.711 63.0511 236.901 62.5834C236.414 62.3019 236.073 61.9935 235.88 61.6582C235.693 61.327 235.679 60.9834 235.837 60.6274C236.001 60.2756 236.367 59.9361 236.934 59.6091C238.031 58.9758 239.124 58.7377 240.214 58.895C241.304 59.0523 242.444 59.4746 243.634 60.1617C244.996 60.9483 245.796 61.6623 246.032 62.304C246.269 62.9456 245.889 63.5541 244.892 64.1295C244.146 64.56 243.365 64.767 242.548 64.7504C241.723 64.738 240.945 64.5579 240.214 64.2102L241.375 63.5396ZM241.289 60.2114C240.823 59.9423 240.296 59.7954 239.708 59.7706C239.128 59.7499 238.572 59.8927 238.041 60.199C237.59 60.4598 237.364 60.7433 237.364 61.0497C237.357 61.3601 237.59 61.652 238.063 61.9252C238.572 62.2191 239.099 62.366 239.644 62.366C240.189 62.366 240.694 62.2315 241.16 61.9624C241.583 61.7182 241.827 61.4326 241.892 61.1056C241.956 60.7785 241.755 60.4805 241.289 60.2114ZM237.374 68.4825C236.872 68.7723 236.352 68.9689 235.815 69.0724C235.284 69.18 234.775 69.1966 234.287 69.1221C233.793 69.0517 233.355 68.9068 232.975 68.6874C232.495 68.4101 232.23 68.0996 232.179 67.756C232.129 67.4207 232.316 67.0937 232.739 66.7749L232.685 66.7439C232.011 66.9592 231.376 67.0647 230.781 67.0606C230.186 67.0647 229.627 66.9157 229.104 66.6135C228.465 66.2451 228.157 65.8229 228.179 65.3468C228.207 64.8749 228.616 64.4113 229.405 63.9559C230.215 63.4882 231.072 63.2294 231.975 63.1798C232.886 63.1342 233.782 63.3246 234.664 63.751L233.448 64.4527C232.975 64.2291 232.477 64.1194 231.954 64.1236C231.437 64.1318 230.953 64.2664 230.502 64.5272C230.079 64.7714 229.867 65.0219 229.867 65.2785C229.86 65.5393 230.032 65.7711 230.383 65.9739C230.806 66.2182 231.294 66.3092 231.846 66.2472C232.391 66.1892 232.972 65.9822 233.588 65.6262L233.879 65.4586L234.89 66.0422L234.599 66.2099C233.416 66.8764 233.23 67.4435 234.04 67.9112C234.391 68.1141 234.775 68.2114 235.191 68.2031C235.607 68.1948 236.001 68.083 236.374 67.8678C236.747 67.6525 236.944 67.4062 236.965 67.1289C236.994 66.8557 236.818 66.5804 236.438 66.303L237.643 65.6076C238.338 66.0671 238.665 66.5452 238.622 67.0419C238.586 67.5428 238.17 68.023 237.374 68.4825ZM226.317 74.8664C225.815 75.1562 225.295 75.3528 224.757 75.4563C224.227 75.564 223.718 75.5805 223.23 75.506C222.735 75.4356 222.298 75.2907 221.918 75.0713C221.438 74.794 221.172 74.4835 221.122 74.14C221.072 73.8046 221.258 73.4776 221.681 73.1589L221.628 73.1278C220.954 73.3431 220.319 73.4486 219.724 73.4445C219.129 73.4486 218.57 73.2996 218.046 72.9974C217.408 72.629 217.1 72.2068 217.121 71.7307C217.15 71.2588 217.559 70.7952 218.347 70.3399C219.158 69.8721 220.014 69.6134 220.918 69.5637C221.828 69.5182 222.725 69.7086 223.606 70.135L222.391 70.8366C221.918 70.6131 221.42 70.5034 220.896 70.5075C220.38 70.5158 219.896 70.6503 219.444 70.9111C219.021 71.1553 218.81 71.4058 218.81 71.6624C218.803 71.9232 218.975 72.155 219.326 72.3579C219.749 72.6021 220.237 72.6932 220.789 72.6311C221.334 72.5731 221.914 72.3662 222.531 72.0102L222.821 71.8425L223.832 72.4262L223.542 72.5938C222.359 73.2603 222.173 73.8274 222.983 74.2952C223.334 74.498 223.718 74.5953 224.133 74.587C224.549 74.5787 224.944 74.467 225.317 74.2517C225.689 74.0365 225.887 73.7902 225.908 73.5128C225.937 73.2396 225.761 72.9643 225.381 72.687L226.586 71.9915C227.281 72.451 227.607 72.9291 227.564 73.4259C227.528 73.9268 227.113 74.407 226.317 74.8664ZM219.329 76.5911C219.702 76.8063 219.942 77.0609 220.049 77.3548C220.157 77.6487 220.107 77.9633 219.899 78.2986C219.684 78.6381 219.296 78.9692 218.737 79.2921C218.178 79.615 217.608 79.8365 217.027 79.9565C216.439 80.0807 215.891 80.1118 215.382 80.0497C214.865 79.9917 214.421 79.8551 214.048 79.6398C213.632 79.3998 213.385 79.1286 213.306 78.8264C213.22 78.5284 213.324 78.2158 213.618 77.8888C212.987 78.0792 212.374 78.1517 211.779 78.1061C211.191 78.0648 210.657 77.9054 210.176 77.628C209.438 77.2017 209.122 76.7173 209.23 76.1751C209.345 75.6369 209.825 75.1236 210.671 74.6351C211.517 74.1467 212.406 73.8693 213.338 73.8031C214.27 73.7451 215.106 73.9294 215.844 74.3557C216.325 74.6331 216.601 74.9415 216.672 75.2809C216.751 75.6245 216.626 75.9784 216.296 76.3427C216.862 76.173 217.407 76.1109 217.931 76.1564C218.447 76.2061 218.913 76.351 219.329 76.5911ZM217.92 77.181C217.533 76.9574 217.106 76.856 216.64 76.8767C216.174 76.9057 215.722 77.0464 215.285 77.2989C214.848 77.5514 214.604 77.8122 214.554 78.0813C214.511 78.3545 214.683 78.6029 215.07 78.8264C215.457 79.05 215.891 79.1472 216.371 79.1183C216.844 79.0934 217.296 78.9568 217.726 78.7084C218.156 78.4601 218.393 78.1993 218.436 77.9261C218.479 77.6529 218.307 77.4045 217.92 77.181ZM214.715 75.0822C214.278 74.8297 213.786 74.7159 213.242 74.7407C212.704 74.7697 212.184 74.9291 211.682 75.2188C211.18 75.5086 210.904 75.8087 210.854 76.1192C210.811 76.4338 211.008 76.7173 211.445 76.9698C211.89 77.2265 212.378 77.33 212.908 77.2803C213.439 77.2389 213.944 77.0795 214.425 76.8022C214.898 76.529 215.174 76.2371 215.253 75.9267C215.332 75.6162 215.152 75.3347 214.715 75.0822ZM206.683 79.6949C206.217 79.492 205.761 79.3906 205.317 79.3906C204.865 79.3947 204.446 79.5086 204.058 79.7321C203.513 80.0467 203.323 80.4048 203.488 80.8063C203.653 81.2161 204.202 81.6901 205.134 82.2283L205.51 82.4332C205.238 82.1434 205.166 81.8246 205.295 81.4769C205.424 81.1375 205.729 80.8291 206.209 80.5517C206.955 80.1212 207.762 79.9122 208.629 79.9246C209.504 79.9412 210.343 80.1813 211.146 80.6449C211.633 80.9264 211.974 81.2348 212.168 81.5701C212.361 81.9054 212.375 82.2489 212.211 82.6008C212.053 82.9568 211.691 83.2983 211.124 83.6253C210.027 84.2587 208.938 84.4988 207.855 84.3456C206.772 84.2007 205.639 83.7868 204.456 83.1038C203.116 82.3297 202.305 81.6177 202.026 80.9678C201.739 80.322 202.083 79.7176 203.058 79.1546C203.811 78.72 204.614 78.5006 205.467 78.4965C206.321 78.5006 207.113 78.6765 207.844 79.0243L206.683 79.6949ZM206.769 83.023C207.235 83.2921 207.758 83.437 208.339 83.4577C208.92 83.4867 209.479 83.3459 210.017 83.0355C210.461 82.7788 210.687 82.4953 210.694 82.1848C210.694 81.8785 210.454 81.5866 209.974 81.3093C209.465 81.0154 208.941 80.8663 208.403 80.8622C207.858 80.8622 207.353 80.9967 206.887 81.2658C206.614 81.4231 206.414 81.6011 206.285 81.7998C206.156 82.0068 206.123 82.2158 206.188 82.4269C206.26 82.6422 206.453 82.8409 206.769 83.023ZM199.321 82.5166C198.956 83.6467 198.805 84.6319 198.87 85.4723C198.934 86.3209 199.293 86.9335 199.945 87.3102C200.332 87.5338 200.738 87.6559 201.161 87.6766C201.576 87.7014 201.996 87.5917 202.419 87.3475C202.856 87.095 203.043 86.8218 202.978 86.5279C202.921 86.2381 202.645 85.9338 202.15 85.6151L203.344 84.9259C204.161 85.4557 204.559 85.9918 204.538 86.5341C204.509 87.0805 204.118 87.571 203.365 88.0057C202.627 88.432 201.852 88.6514 201.042 88.6639C200.232 88.6846 199.483 88.4962 198.795 88.0988C198.242 87.7801 197.855 87.3578 197.633 86.8321C197.404 86.3105 197.31 85.76 197.353 85.1804C197.404 84.605 197.536 84.0566 197.751 83.535L194.148 85.6151L193.148 85.0376L198.418 81.9951L199.321 82.5166ZM194.323 91.736L195.474 92.4004L193.043 93.8037L185.45 89.4199L186.741 88.6748L193.183 92.3941L194.323 91.736ZM186.938 93.0066C185.727 92.307 184.562 91.8827 183.443 91.7337C182.332 91.5888 181.274 91.8062 180.27 92.3857C179.267 92.9652 178.894 93.5779 179.152 94.2237C179.41 94.8694 180.141 95.54 181.346 96.2355C182.543 96.9268 183.698 97.3449 184.809 97.4897C185.927 97.6388 186.989 97.4235 187.992 96.844C188.996 96.2644 189.373 95.6539 189.122 95.0122C188.871 94.3706 188.143 93.7021 186.938 93.0066ZM182.572 95.5276C181.697 95.0226 181.134 94.5734 180.883 94.1802C180.632 93.7869 180.815 93.4123 181.432 93.0563C182.056 92.6962 182.708 92.5885 183.389 92.7334C184.07 92.8783 184.848 93.2033 185.723 93.7083C186.591 94.2092 187.146 94.6542 187.39 95.0433C187.634 95.4324 187.444 95.807 186.82 96.1672C186.203 96.5232 185.555 96.6287 184.873 96.4838C184.2 96.3431 183.432 96.0244 182.572 95.5276ZM176.398 95.7514C176.033 96.8815 175.882 97.8667 175.946 98.7071C176.011 99.5557 176.369 100.168 177.022 100.545C177.409 100.769 177.814 100.891 178.237 100.911C178.653 100.936 179.073 100.827 179.496 100.582C179.933 100.33 180.119 100.057 180.055 99.7626C179.997 99.4729 179.721 99.1686 179.227 98.8499L180.42 98.1606C181.238 98.6905 181.636 99.2266 181.614 99.7689C181.586 100.315 181.195 100.806 180.442 101.24C179.703 101.667 178.929 101.886 178.119 101.899C177.309 101.919 176.559 101.731 175.871 101.334C175.319 101.015 174.932 100.593 174.71 100.067C174.48 99.5453 174.387 98.9948 174.43 98.4152C174.48 97.8398 174.613 97.2913 174.828 96.7698L171.225 98.8499L170.225 98.2724L175.495 95.2299L176.398 95.7514ZM173.77 102.895C174.143 103.11 174.383 103.364 174.49 103.658C174.598 103.952 174.548 104.267 174.34 104.602C174.125 104.942 173.738 105.273 173.178 105.596C172.619 105.918 172.049 106.14 171.468 106.26C170.88 106.384 170.332 106.415 169.823 106.353C169.307 106.295 168.862 106.159 168.489 105.943C168.073 105.703 167.826 105.432 167.747 105.13C167.661 104.832 167.765 104.519 168.059 104.192C167.428 104.383 166.815 104.455 166.22 104.41C165.632 104.368 165.098 104.209 164.618 103.931C163.879 103.505 163.564 103.021 163.671 102.478C163.786 101.94 164.266 101.427 165.112 100.939C165.958 100.45 166.847 100.173 167.779 100.107C168.712 100.049 169.547 100.233 170.285 100.659C170.766 100.937 171.042 101.245 171.113 101.584C171.192 101.928 171.067 102.282 170.737 102.646C171.303 102.476 171.848 102.414 172.372 102.46C172.888 102.51 173.354 102.654 173.77 102.895ZM172.361 103.484C171.974 103.261 171.547 103.159 171.081 103.18C170.615 103.209 170.163 103.35 169.726 103.602C169.289 103.855 169.045 104.116 168.995 104.385C168.952 104.658 169.124 104.906 169.511 105.13C169.898 105.353 170.332 105.451 170.812 105.422C171.286 105.397 171.737 105.26 172.167 105.012C172.598 104.764 172.834 104.503 172.877 104.23C172.92 103.956 172.748 103.708 172.361 103.484ZM169.156 101.386C168.719 101.133 168.228 101.019 167.683 101.044C167.145 101.073 166.625 101.232 166.123 101.522C165.621 101.812 165.345 102.112 165.295 102.423C165.252 102.737 165.449 103.021 165.887 103.273C166.331 103.53 166.819 103.633 167.349 103.584C167.88 103.542 168.385 103.383 168.866 103.106C169.339 102.832 169.615 102.541 169.694 102.23C169.773 101.92 169.593 101.638 169.156 101.386Z" fill="white"/>
</g>
<g filter="url(#filter8_d_405_24)">
<path d="M88.1791 148.924L81.8552 151.118L80.8515 150.539L83.6979 147.662L78.7148 149.305L77.7111 148.726L81.5111 145.074L82.4073 145.592L79.1665 148.473L84.3934 146.739L85.2968 147.26L82.2926 150.278L87.2828 148.407L88.1791 148.924ZM88.6816 153.793L86.545 152.559L85.0609 152.969L84.1861 152.464L91.0334 150.663L91.9726 151.205L88.8466 155.155L87.9718 154.65L88.6816 153.793ZM89.0832 153.296L90.6103 151.446L87.4054 152.327L89.0832 153.296ZM94.3146 155.356L93.9848 158.121L92.9882 157.546L93.3323 155.037L90.9878 156.391L90.1704 155.919L95.2323 152.996L96.0497 153.468L93.7338 154.805L98.0573 154.627L99.0467 155.199L94.3146 155.356ZM102.385 161.414C102.136 161.558 101.845 161.657 101.51 161.712C101.18 161.765 100.829 161.758 100.456 161.692C100.083 161.626 99.7199 161.49 99.3662 161.286C99.0221 161.087 98.7735 160.875 98.6206 160.649C98.4724 160.42 98.427 160.195 98.4843 159.974C98.5417 159.753 98.7018 159.553 98.9647 159.374L99.8394 159.879C99.6435 160.019 99.5479 160.182 99.5526 160.367C99.5622 160.555 99.7056 160.729 99.9828 160.889C100.231 161.032 100.49 161.104 100.757 161.104C101.03 161.107 101.271 161.047 101.481 160.926C101.663 160.821 101.761 160.707 101.775 160.582C101.794 160.455 101.763 160.33 101.682 160.206C101.601 160.081 101.474 159.92 101.302 159.721C101.087 159.481 100.929 159.274 100.829 159.1C100.733 158.929 100.712 158.749 100.764 158.558C100.817 158.368 100.999 158.183 101.309 158.003C101.582 157.846 101.888 157.747 102.227 157.705C102.566 157.664 102.915 157.683 103.274 157.763C103.637 157.841 103.981 157.973 104.306 158.161C104.823 158.459 105.107 158.766 105.16 159.084C105.217 159.404 105.066 159.692 104.708 159.949L103.826 159.44C103.984 159.31 104.055 159.164 104.041 159.001C104.036 158.838 103.907 158.684 103.654 158.537C103.424 158.405 103.181 158.333 102.922 158.322C102.669 158.308 102.433 158.365 102.213 158.492C102.041 158.591 101.945 158.702 101.926 158.823C101.912 158.942 101.943 159.062 102.019 159.183C102.105 159.305 102.232 159.463 102.399 159.659C102.619 159.902 102.777 160.112 102.872 160.288C102.977 160.465 103.001 160.65 102.944 160.843C102.891 161.039 102.705 161.23 102.385 161.414ZM108.416 160.608L105.411 162.342C104.962 162.602 104.725 162.851 104.702 163.091C104.682 163.334 104.852 163.559 105.211 163.766C105.564 163.97 105.949 164.066 106.365 164.052C106.786 164.041 107.221 163.906 107.67 163.646L110.674 161.912L111.491 162.384L108.487 164.118C107.794 164.518 107.089 164.718 106.372 164.718C105.66 164.716 105.01 164.544 104.422 164.205C103.839 163.868 103.547 163.496 103.547 163.087C103.552 162.676 103.901 162.27 104.594 161.87L107.598 160.136L108.416 160.608ZM112.193 168.634L111.376 168.162L112.652 164.585L108.917 166.742L108.099 166.27L113.154 163.352L113.971 163.824L112.681 167.409L116.431 165.244L117.248 165.715L112.193 168.634ZM118.015 170.728L115.879 169.495L114.394 169.905L113.52 169.4L120.367 167.599L121.306 168.141L118.18 172.09L117.305 171.585L118.015 170.728ZM118.417 170.232L119.944 168.381L116.739 169.263L118.417 170.232ZM122.164 174.39L122.924 172.494L122.343 172.159L120.321 173.327L119.504 172.855L124.566 169.932L126.351 170.963C126.93 171.297 127.226 171.631 127.24 171.965C127.259 172.301 127.037 172.604 126.573 172.871C126.177 173.1 125.739 173.223 125.261 173.24C124.788 173.259 124.305 173.168 123.813 172.966L123.082 174.92L122.164 174.39ZM122.924 171.824L123.827 172.345C124.487 172.726 125.108 172.748 125.692 172.412C125.969 172.252 126.103 172.081 126.093 171.898C126.093 171.716 125.923 171.527 125.584 171.331L124.681 170.81L122.924 171.824ZM130.385 173.292L125.323 176.215L124.506 175.743L129.568 172.82L130.385 173.292Z" fill="white"/>
</g>
<g filter="url(#filter9_d_405_24)">
<path d="M67.2734 153.415C66.5962 153.806 66.18 154.175 66.0246 154.522C65.8693 154.869 66.0664 155.202 66.6161 155.519C67.1658 155.836 67.7414 155.95 68.3429 155.861C68.9483 155.773 69.5896 155.534 70.2668 155.143C70.936 154.757 71.3463 154.389 71.4976 154.039C71.653 153.692 71.4558 153.36 70.9061 153.042C70.3564 152.725 69.7808 152.611 69.1794 152.701C68.5819 152.788 67.9465 153.026 67.2734 153.415ZM69.7291 154.833C69.3825 155.033 69.0658 155.186 68.779 155.291C68.5002 155.397 68.2214 155.45 67.9426 155.45C67.6637 155.45 67.3929 155.374 67.13 155.222C66.8711 155.073 66.7416 154.918 66.7416 154.757C66.7416 154.596 66.8312 154.434 67.0105 154.27C67.1977 154.107 67.4646 153.925 67.8111 153.725C68.1537 153.528 68.4644 153.376 68.7432 153.27C69.026 153.166 69.3048 153.116 69.5797 153.118C69.8585 153.118 70.1274 153.193 70.3863 153.342C70.6492 153.494 70.7806 153.651 70.7806 153.812C70.7846 153.97 70.695 154.13 70.5118 154.291C70.3325 154.454 70.0716 154.635 69.7291 154.833ZM74.2775 156.355C74.4966 156.192 74.6041 156.031 74.6001 155.872C74.6041 155.713 74.4846 155.564 74.2417 155.423C73.9031 155.228 73.5147 155.155 73.0765 155.206C72.6424 155.259 72.1405 155.45 71.5709 155.779L71.3558 155.91C71.6545 155.806 71.9811 155.776 72.3357 155.82C72.6941 155.861 73.0188 155.966 73.3096 156.134C73.7278 156.375 73.929 156.637 73.913 156.917C73.9011 157.2 73.6701 157.471 73.2199 157.731C72.957 157.883 72.6663 157.991 72.3476 158.055C72.0329 158.118 71.7043 158.123 71.3617 158.073C71.0272 158.022 70.7025 157.906 70.3878 157.724C69.7864 157.377 69.5613 157.029 69.7127 156.679C69.868 156.332 70.2703 155.971 70.9196 155.596C71.6685 155.164 72.3496 154.908 72.963 154.83C73.5844 154.752 74.168 154.87 74.7137 155.185C75.116 155.418 75.3112 155.661 75.2992 155.917C75.2912 156.174 75.1239 156.42 74.7973 156.655L74.2775 156.355ZM70.8599 156.265C70.5691 156.433 70.4078 156.623 70.3759 156.834C70.352 157.046 70.5093 157.249 70.8479 157.445C71.1267 157.606 71.4315 157.687 71.7621 157.69C72.0967 157.69 72.4133 157.604 72.7121 157.431C73.0347 157.245 73.196 157.055 73.196 156.862C73.2 156.666 73.0546 156.484 72.7599 156.313C72.5926 156.217 72.3994 156.144 72.1803 156.096C71.9612 156.048 71.7342 156.036 71.4992 156.062C71.2681 156.085 71.055 156.152 70.8599 156.265ZM80.014 156.735L71.7268 159.629L71.201 159.325L79.4822 156.428L80.014 156.735ZM75.079 159.901C76.2102 160.03 77.2021 160.083 78.0545 160.06C78.9109 160.035 79.5323 159.911 79.9186 159.688C80.1576 159.55 80.2871 159.404 80.307 159.249C80.3349 159.095 80.2134 158.94 79.9425 158.784C79.6637 158.623 79.363 158.553 79.0403 158.573C78.7217 158.592 78.399 158.686 78.0724 158.856L77.5347 158.546C78.0326 158.291 78.5384 158.166 79.0523 158.173C79.5701 158.178 80.0362 158.3 80.4504 158.539C80.8448 158.767 81.0519 159.008 81.0718 159.263C81.0917 159.519 80.9085 159.758 80.5221 159.981C80.2035 160.165 79.7753 160.292 79.2375 160.364C78.7077 160.435 78.1461 160.463 77.5526 160.447C76.967 160.43 76.4134 160.384 75.8916 160.309L78.0306 161.543L77.5825 161.802L74.6846 160.129L75.079 159.901ZM80.2735 160.92C79.5963 161.311 79.18 161.68 79.0247 162.028C78.8694 162.375 79.0665 162.707 79.6162 163.025C80.1659 163.342 80.7415 163.456 81.343 163.366C81.9484 163.279 82.5897 163.04 83.2669 162.649C83.9361 162.262 84.3463 161.894 84.4977 161.545C84.6531 161.198 84.4559 160.865 83.9062 160.548C83.3565 160.231 82.7809 160.117 82.1795 160.206C81.582 160.294 80.9466 160.532 80.2735 160.92ZM82.7291 162.338C82.3826 162.538 82.0659 162.691 81.7791 162.797C81.5003 162.903 81.2215 162.956 80.9426 162.956C80.6638 162.956 80.393 162.88 80.1301 162.728C79.8711 162.579 79.7417 162.423 79.7417 162.262C79.7417 162.101 79.8313 161.939 80.0106 161.776C80.1978 161.613 80.4647 161.431 80.8112 161.231C81.1538 161.033 81.4645 160.881 81.7433 160.776C82.0261 160.672 82.3049 160.621 82.5798 160.624C82.8586 160.624 83.1275 160.699 83.3864 160.848C83.6493 161 83.7807 161.156 83.7807 161.317C83.7847 161.476 83.6951 161.636 83.5119 161.797C83.3326 161.96 83.0717 162.14 82.7291 162.338ZM82.1392 163.978C83.2704 164.106 84.2622 164.159 85.1147 164.136C85.9711 164.111 86.5925 163.987 86.9788 163.764C87.2178 163.626 87.3473 163.48 87.3672 163.326C87.3951 163.172 87.2736 163.016 87.0027 162.86C86.7239 162.699 86.4232 162.629 86.1005 162.65C85.7819 162.668 85.4592 162.762 85.1326 162.932L84.5949 162.622C85.0928 162.367 85.5986 162.243 86.1125 162.249C86.6303 162.254 87.0963 162.376 87.5106 162.615C87.9049 162.843 88.1121 163.084 88.132 163.339C88.1519 163.595 87.9687 163.834 87.5823 164.057C87.2636 164.241 86.8354 164.369 86.2977 164.44C85.7679 164.511 85.2063 164.539 84.6128 164.523C84.0272 164.507 83.4736 164.461 82.9518 164.385L85.0908 165.62L84.6427 165.878L81.7448 164.205L82.1392 163.978ZM86.0132 165.58L86.4673 165.317L91.4504 164.938L92.0359 165.276L89.2337 166.894L89.8551 167.253L89.383 167.525L88.7616 167.166L87.7937 167.725L87.244 167.408L88.212 166.849L86.0132 165.58ZM90.8588 165.362L87.0588 165.638L88.7198 166.597L90.8588 165.362Z" fill="white" fill-opacity="0.7" shape-rendering="crispEdges"/>
</g>
<path d="M196.37 159.273C196.623 159.127 197.033 159.127 197.286 159.273L202.121 162.065C202.374 162.211 202.374 162.447 202.121 162.593L199.842 163.909C199.589 164.055 199.179 164.055 198.926 163.909L194.091 161.118C193.838 160.972 193.838 160.735 194.091 160.589L196.37 159.273Z" fill="white"/>
<path d="M175.793 153.296C176.046 153.15 176.456 153.15 176.709 153.296L181.544 156.088C181.797 156.234 181.797 156.471 181.544 156.617L179.265 157.933C179.012 158.079 178.602 158.079 178.349 157.933L173.513 155.141C173.26 154.995 173.26 154.758 173.513 154.612L175.793 153.296Z" fill="white"/>
<path d="M180.905 150.344C181.158 150.198 181.568 150.198 181.821 150.344L186.657 153.136C186.91 153.282 186.91 153.519 186.657 153.665L184.378 154.981C184.125 155.127 183.714 155.127 183.461 154.981L178.626 152.189C178.373 152.043 178.373 151.806 178.626 151.66L180.905 150.344Z" fill="white"/>
<path d="M187.296 155.51C187.549 155.364 187.959 155.364 188.212 155.51L193.176 158.376C193.429 158.522 193.429 158.758 193.176 158.905L188.34 161.696C188.087 161.842 187.677 161.842 187.424 161.696L182.461 158.831C182.208 158.685 182.208 158.448 182.461 158.302L187.296 155.51Z" fill="white"/>
<path d="M191.26 162.226C191.513 162.08 191.923 162.08 192.176 162.226L197.011 165.018C197.264 165.164 197.264 165.401 197.011 165.547L194.732 166.862C194.479 167.009 194.069 167.009 193.816 166.862L188.98 164.071C188.727 163.925 188.727 163.688 188.98 163.542L191.26 162.226Z" fill="white"/>
<path d="M189.991 152.847C190.52 153.153 190.52 153.648 189.991 153.954C189.814 154.056 189.814 154.221 189.991 154.323L191.194 155.018C191.447 155.164 191.857 155.164 192.11 155.018L193.889 153.991C194.143 153.844 194.488 153.762 194.847 153.762C195.055 153.762 195.158 153.617 195.012 153.532L185.656 148.13C185.403 147.984 184.992 147.984 184.739 148.13L183.738 148.708C183.485 148.854 183.485 149.091 183.738 149.237L189.991 152.847Z" fill="white"/>
<path d="M195.677 155.327C195.505 155.327 195.341 155.366 195.219 155.436L194.027 156.125C193.774 156.271 193.774 156.507 194.027 156.653L195.231 157.348C195.407 157.45 195.693 157.45 195.87 157.348C196.399 157.043 197.258 157.043 197.787 157.348L204.039 160.958C204.292 161.104 204.702 161.104 204.955 160.958L205.956 160.38C206.209 160.234 206.209 159.997 205.956 159.851L198.31 155.436C198.189 155.366 198.024 155.327 197.852 155.327L195.677 155.327Z" fill="white"/>
<path d="M185.646 164.359C185.117 164.054 185.117 163.558 185.646 163.253C185.823 163.151 185.823 162.986 185.646 162.884L184.443 162.189C184.19 162.043 183.78 162.043 183.527 162.189L181.748 163.216C181.494 163.362 181.149 163.445 180.789 163.445C180.582 163.445 180.478 163.59 180.625 163.674L189.981 169.076C190.234 169.222 190.644 169.222 190.897 169.076L191.898 168.498C192.151 168.352 192.151 168.115 191.898 167.969L185.646 164.359Z" fill="white"/>
<path d="M179.958 161.879C180.13 161.879 180.295 161.839 180.416 161.769L181.608 161.081C181.861 160.935 181.861 160.698 181.608 160.552L180.404 159.857C180.228 159.756 179.942 159.756 179.765 159.857C179.236 160.163 178.378 160.163 177.848 159.857L171.596 156.248C171.343 156.102 170.933 156.102 170.68 156.248L169.679 156.826C169.426 156.972 169.426 157.209 169.679 157.355L177.325 161.769C177.447 161.839 177.612 161.879 177.783 161.879L179.958 161.879Z" fill="white"/>
<rect x="-1.57639e-08" y="0.264474" width="24.3316" height="18.5132" rx="0.793421" transform="matrix(0.866025 0.5 -0.866025 0.5 185.427 147.705)" stroke="white" stroke-width="0.528947"/>
<g style="mix-blend-mode:overlay">
<path d="M173.994 167.779C172.797 167.62 170.333 166.943 170.062 165.513M172.369 170.345C170.511 170.07 166.558 168.906 165.61 166.45M171.151 172.746C168.676 172.355 163.306 170.709 161.626 167.258M169.418 175.09C166.403 174.679 159.81 172.737 157.558 168.257" stroke="white" stroke-width="1.37985" stroke-linecap="round" stroke-linejoin="round"/>
</g>
<path fill-rule="evenodd" clip-rule="evenodd" d="M324.942 167.186L375.095 138.23C374.109 135.951 372.83 133.708 371.26 131.52C367.738 126.61 362.842 122.102 356.81 118.163C352.119 115.099 346.742 112.38 340.789 110.083C327.184 104.835 311.189 102.034 294.826 102.034C278.463 102.034 262.468 104.835 248.863 110.083C235.258 115.332 224.654 122.792 218.392 131.52C212.516 139.71 210.711 148.672 213.149 157.402L247.403 177.178L265.576 166.686C259.791 163.346 255.851 159.091 254.255 154.458C252.659 149.825 253.478 145.023 256.609 140.659C259.74 136.295 265.042 132.565 271.845 129.941C278.647 127.317 286.645 125.916 294.826 125.916C303.008 125.916 311.005 127.317 317.808 129.941C320.072 130.814 322.169 131.81 324.076 132.911C327.541 134.911 330.375 137.259 332.431 139.848C332.643 140.116 332.848 140.386 333.043 140.659C335 143.387 336.054 146.285 336.179 149.207C336.188 149.404 336.192 149.601 336.192 149.799C336.192 151.355 335.928 152.916 335.397 154.458C334.898 155.906 334.171 157.316 333.229 158.674C333.168 158.762 333.106 158.85 333.043 158.938C330.974 161.822 327.936 164.458 324.076 166.686L324.942 167.186ZM276.544 160.353C266.447 154.524 266.447 145.073 276.544 139.244C286.64 133.415 303.01 133.415 313.106 139.244C323.203 145.073 323.203 154.524 313.106 160.353C308.147 163.217 301.674 164.674 295.174 164.724C295.058 164.725 294.941 164.725 294.825 164.725C294.709 164.725 294.593 164.725 294.476 164.724C287.976 164.674 281.503 163.217 276.544 160.353Z" fill="url(#paint11_linear_405_24)"/>
</g>
<defs>
<filter id="filter0_b_405_24" x="46.5543" y="184.858" width="397.812" height="237.284" filterUnits="userSpaceOnUse" color-interpolation-filters="sRGB">
<feFlood flood-opacity="0" result="BackgroundImageFix"/>
<feGaussianBlur in="BackgroundImageFix" stdDeviation="4.5"/>
<feComposite in2="SourceAlpha" operator="in" result="effect1_backgroundBlur_405_24"/>
<feBlend mode="normal" in="SourceGraphic" in2="effect1_backgroundBlur_405_24" result="shape"/>
</filter>
<filter id="filter1_d_405_24" x="0.408264" y="49.0415" width="526.318" height="363.041" filterUnits="userSpaceOnUse" color-interpolation-filters="sRGB">
<feFlood flood-opacity="0" result="BackgroundImageFix"/>
<feColorMatrix in="SourceAlpha" type="matrix" values="0 0 0 0 0 0 0 0 0 0 0 0 0 0 0 0 0 0 127 0" result="hardAlpha"/>
<feOffset dy="9"/>
<feGaussianBlur stdDeviation="35"/>
<feComposite in2="hardAlpha" operator="out"/>
<feColorMatrix type="matrix" values="0 0 0 0 0 0 0 0 0 0 0 0 0 0 0 0 0 0 0.25 0"/>
<feBlend mode="normal" in2="BackgroundImageFix" result="effect1_dropShadow_405_24"/>
<feBlend mode="normal" in="SourceGraphic" in2="effect1_dropShadow_405_24" result="shape"/>
</filter>
<filter id="filter2_d_405_24" x="100.807" y="237.037" width="56.0509" height="33.2063" filterUnits="userSpaceOnUse" color-interpolation-filters="sRGB">
<feFlood flood-opacity="0" result="BackgroundImageFix"/>
<feColorMatrix in="SourceAlpha" type="matrix" values="0 0 0 0 0 0 0 0 0 0 0 0 0 0 0 0 0 0 127 0" result="hardAlpha"/>
<feOffset dy="1"/>
<feGaussianBlur stdDeviation="0.5"/>
<feComposite in2="hardAlpha" operator="out"/>
<feColorMatrix type="matrix" values="0 0 0 0 0 0 0 0 0 0 0 0 0 0 0 0 0 0 0.15 0"/>
<feBlend mode="normal" in2="BackgroundImageFix" result="effect1_dropShadow_405_24"/>
<feBlend mode="normal" in="SourceGraphic" in2="effect1_dropShadow_405_24" result="shape"/>
</filter>
<filter id="filter3_d_405_24" x="88.5268" y="243.397" width="31.9249" height="19.2771" filterUnits="userSpaceOnUse" color-interpolation-filters="sRGB">
<feFlood flood-opacity="0" result="BackgroundImageFix"/>
<feColorMatrix in="SourceAlpha" type="matrix" values="0 0 0 0 0 0 0 0 0 0 0 0 0 0 0 0 0 0 127 0" result="hardAlpha"/>
<feOffset dy="1"/>
<feGaussianBlur stdDeviation="0.5"/>
<feComposite in2="hardAlpha" operator="out"/>
<feColorMatrix type="matrix" values="0 0 0 0 0 0 0 0 0 0 0 0 0 0 0 0 0 0 0.15 0"/>
<feBlend mode="normal" in2="BackgroundImageFix" result="effect1_dropShadow_405_24"/>
<feBlend mode="normal" in="SourceGraphic" in2="effect1_dropShadow_405_24" result="shape"/>
</filter>
<filter id="filter4_d_405_24" x="9" y="0.0415039" width="466.319" height="303.041" filterUnits="userSpaceOnUse" color-interpolation-filters="sRGB">
<feFlood flood-opacity="0" result="BackgroundImageFix"/>
<feColorMatrix in="SourceAlpha" type="matrix" values="0 0 0 0 0 0 0 0 0 0 0 0 0 0 0 0 0 0 127 0" result="hardAlpha"/>
<feOffset dx="4" dy="22"/>
<feGaussianBlur stdDeviation="20"/>
<feComposite in2="hardAlpha" operator="out"/>
<feColorMatrix type="matrix" values="0 0 0 0 0 0 0 0 0 0 0 0 0 0 0 0 0 0 0.25 0"/>
<feBlend mode="normal" in2="BackgroundImageFix" result="effect1_dropShadow_405_24"/>
<feBlend mode="normal" in="SourceGraphic" in2="effect1_dropShadow_405_24" result="shape"/>
</filter>
<filter id="filter5_b_405_24" x="38.0001" y="11.0415" width="400.318" height="237.041" filterUnits="userSpaceOnUse" color-interpolation-filters="sRGB">
<feFlood flood-opacity="0" result="BackgroundImageFix"/>
<feGaussianBlur in="BackgroundImageFix" stdDeviation="3.5"/>
<feComposite in2="SourceAlpha" operator="in" result="effect1_backgroundBlur_405_24"/>
<feBlend mode="normal" in="SourceGraphic" in2="effect1_backgroundBlur_405_24" result="shape"/>
</filter>
<filter id="filter6_b_405_24" x="38" y="97.3799" width="250.776" height="150.703" filterUnits="userSpaceOnUse" color-interpolation-filters="sRGB">
<feFlood flood-opacity="0" result="BackgroundImageFix"/>
<feGaussianBlur in="BackgroundImageFix" stdDeviation="3.5"/>
<feComposite in2="SourceAlpha" operator="in" result="effect1_backgroundBlur_405_24"/>
<feBlend mode="normal" in="SourceGraphic" in2="effect1_backgroundBlur_405_24" result="shape"/>
</filter>
<filter id="filter7_d_405_24" x="161.744" y="33.531" width="128.717" height="74.7618" filterUnits="userSpaceOnUse" color-interpolation-filters="sRGB">
<feFlood flood-opacity="0" result="BackgroundImageFix"/>
<feColorMatrix in="SourceAlpha" type="matrix" values="0 0 0 0 0 0 0 0 0 0 0 0 0 0 0 0 0 0 127 0" result="hardAlpha"/>
<feOffset dy="0.528947"/>
<feGaussianBlur stdDeviation="0.264474"/>
<feComposite in2="hardAlpha" operator="out"/>
<feColorMatrix type="matrix" values="0 0 0 0 0 0 0 0 0 0 0 0 0 0 0 0 0 0 0.2 0"/>
<feBlend mode="normal" in2="BackgroundImageFix" result="effect1_dropShadow_405_24"/>
<feBlend mode="normal" in="SourceGraphic" in2="effect1_dropShadow_405_24" result="shape"/>
</filter>
<filter id="filter8_d_405_24" x="75.399" y="145.037" width="56.0509" height="33.2063" filterUnits="userSpaceOnUse" color-interpolation-filters="sRGB">
<feFlood flood-opacity="0" result="BackgroundImageFix"/>
<feColorMatrix in="SourceAlpha" type="matrix" values="0 0 0 0 0 0 0 0 0 0 0 0 0 0 0 0 0 0 127 0" result="hardAlpha"/>
<feOffset dy="1"/>
<feGaussianBlur stdDeviation="0.5"/>
<feComposite in2="hardAlpha" operator="out"/>
<feColorMatrix type="matrix" values="0 0 0 0 0 0 0 0 0 0 0 0 0 0 0 0 0 0 0.15 0"/>
<feBlend mode="normal" in2="BackgroundImageFix" result="effect1_dropShadow_405_24"/>
<feBlend mode="normal" in="SourceGraphic" in2="effect1_dropShadow_405_24" result="shape"/>
</filter>
<filter id="filter9_d_405_24" x="63.1186" y="151.397" width="31.9249" height="19.2771" filterUnits="userSpaceOnUse" color-interpolation-filters="sRGB">
<feFlood flood-opacity="0" result="BackgroundImageFix"/>
<feColorMatrix in="SourceAlpha" type="matrix" values="0 0 0 0 0 0 0 0 0 0 0 0 0 0 0 0 0 0 127 0" result="hardAlpha"/>
<feOffset dy="1"/>
<feGaussianBlur stdDeviation="0.5"/>
<feComposite in2="hardAlpha" operator="out"/>
<feColorMatrix type="matrix" values="0 0 0 0 0 0 0 0 0 0 0 0 0 0 0 0 0 0 0.15 0"/>
<feBlend mode="normal" in2="BackgroundImageFix" result="effect1_dropShadow_405_24"/>
<feBlend mode="normal" in="SourceGraphic" in2="effect1_dropShadow_405_24" result="shape"/>
</filter>
<linearGradient id="paint0_linear_405_24" x1="-55.9589" y1="-198.041" x2="78.9749" y2="295.841" gradientUnits="userSpaceOnUse">
<stop stop-color="white" stop-opacity="0.7"/>
<stop offset="0.667914" stop-color="#F9F9F9" stop-opacity="0.175336"/>
<stop offset="1" stop-color="#F9F9F9" stop-opacity="0.1"/>
<stop offset="1" stop-color="white" stop-opacity="0.2"/>
</linearGradient>
<linearGradient id="paint1_linear_405_24" x1="-3.5" y1="-9.24422e-07" x2="175" y2="284" gradientUnits="userSpaceOnUse">
<stop stop-color="white"/>
<stop offset="1" stop-color="white" stop-opacity="0.1"/>
</linearGradient>
<linearGradient id="paint2_linear_405_24" x1="0" y1="0" x2="178" y2="284.248" gradientUnits="userSpaceOnUse">
<stop stop-color="white" stop-opacity="0.4"/>
<stop offset="1" stop-color="white" stop-opacity="0.1"/>
</linearGradient>
<linearGradient id="paint3_linear_405_24" x1="-1.21225e-06" y1="9.5" x2="167.5" y2="284" gradientUnits="userSpaceOnUse">
<stop stop-color="white"/>
<stop offset="1" stop-color="white" stop-opacity="0.1"/>
</linearGradient>
<linearGradient id="paint4_linear_405_24" x1="9.89486" y1="0" x2="9.89486" y2="19.7897" gradientUnits="userSpaceOnUse">
<stop stop-color="white"/>
<stop offset="0.479167" stop-opacity="0.5"/>
<stop offset="0.9375" stop-color="white"/>
</linearGradient>
<linearGradient id="paint5_linear_405_24" x1="9.89486" y1="0" x2="9.89486" y2="19.7897" gradientUnits="userSpaceOnUse">
<stop stop-color="white"/>
<stop offset="0.479167" stop-opacity="0.5"/>
<stop offset="0.9375" stop-color="white"/>
</linearGradient>
<linearGradient id="paint6_linear_405_24" x1="0" y1="0" x2="178" y2="284.248" gradientUnits="userSpaceOnUse">
<stop stop-color="white" stop-opacity="0.4"/>
<stop offset="1" stop-color="white" stop-opacity="0.1"/>
</linearGradient>
<linearGradient id="paint7_linear_405_24" x1="-1.21225e-06" y1="9.5" x2="167.5" y2="284" gradientUnits="userSpaceOnUse">
<stop stop-color="white"/>
<stop offset="1" stop-color="white" stop-opacity="0.1"/>
</linearGradient>
<linearGradient id="paint8_linear_405_24" x1="106.499" y1="-75.5" x2="273.067" y2="265.832" gradientUnits="userSpaceOnUse">
<stop stop-color="#5AE5EA"/>
<stop offset="0.29487" stop-color="#5AE5EA" stop-opacity="0"/>
<stop offset="1" stop-color="#5AE5EA"/>
</linearGradient>
<linearGradient id="paint9_linear_405_24" x1="9.89486" y1="0" x2="9.89486" y2="19.7897" gradientUnits="userSpaceOnUse">
<stop stop-color="white"/>
<stop offset="0.479167" stop-opacity="0.5"/>
<stop offset="0.9375" stop-color="white"/>
</linearGradient>
<linearGradient id="paint10_linear_405_24" x1="9.89486" y1="0" x2="9.89486" y2="19.7897" gradientUnits="userSpaceOnUse">
<stop stop-color="white"/>
<stop offset="0.479167" stop-opacity="0.5"/>
<stop offset="0.9375" stop-color="white"/>
</linearGradient>
<linearGradient id="paint11_linear_405_24" x1="316.597" y1="64.9335" x2="314.709" y2="172.043" gradientUnits="userSpaceOnUse">
<stop stop-color="white"/>
<stop offset="1" stop-color="white" stop-opacity="0"/>
</linearGradient>
</defs>
</svg>
