<svg width="32" height="32" viewBox="0 0 32 32" fill="none" xmlns="http://www.w3.org/2000/svg">
<path opacity="0.4" d="M15.9989 29.3309C14.9735 29.3309 13.9495 28.9415 13.1669 28.1642L12.1935 27.1909C11.8162 26.8149 11.3109 26.6069 10.7749 26.6055H9.40552C7.19218 26.6055 5.39085 24.8042 5.39085 22.5909V21.2202C5.38952 20.6855 5.18152 20.1802 4.80418 19.8002L3.84685 18.8442C2.27885 17.2855 2.27218 14.7375 3.83218 13.1682L4.80552 12.1935C5.18152 11.8162 5.38952 11.3109 5.39085 10.7749V9.40686C5.39085 7.1922 7.19218 5.39086 9.40552 5.39086H10.7762C11.3109 5.39086 11.8149 5.18286 12.1949 4.80286L13.1535 3.84686C14.7122 2.27886 17.2589 2.27086 18.8295 3.8322L19.8029 4.80553C20.1815 5.18286 20.6855 5.39086 21.2202 5.39086H22.5909C24.8042 5.39086 26.6055 7.1922 26.6055 9.40686V10.7762C26.6069 11.3109 26.8149 11.8162 27.1922 12.1962L28.1495 13.1535C28.9082 13.9082 29.3282 14.9135 29.3322 15.9869C29.3349 17.0535 28.9242 18.0575 28.1762 18.8162C28.1629 18.8295 28.1509 18.8442 28.1375 18.8562L27.1909 19.8029C26.8149 20.1802 26.6069 20.6855 26.6055 21.2215V22.5909C26.6055 24.8042 24.8042 26.6055 22.5909 26.6055H21.2202C20.6855 26.6069 20.1802 26.8149 19.8015 27.1922L18.8429 28.1495C18.0615 28.9362 17.0295 29.3309 15.9989 29.3309Z" fill="#393939"/>
<path fill-rule="evenodd" clip-rule="evenodd" d="M13.3903 13.4011C13.1703 13.6211 12.885 13.7398 12.569 13.7398C12.273 13.7398 11.9823 13.6184 11.749 13.3998C11.5277 13.1798 11.4023 12.8784 11.4023 12.5731C11.4023 12.2824 11.525 11.9838 11.741 11.7531C11.8597 11.6331 12.001 11.5424 12.1423 11.4944C12.545 11.3104 13.0797 11.4184 13.397 11.7518C13.5103 11.8651 13.597 11.9891 13.6543 12.1184C13.717 12.2571 13.749 12.4144 13.749 12.5731C13.749 12.8904 13.6223 13.1851 13.3903 13.4011ZM20.2539 11.7463C19.7993 11.293 19.0593 11.293 18.6046 11.7463L11.7513 18.5996C11.2966 19.0543 11.2966 19.7943 11.7513 20.2503C11.9726 20.4703 12.2646 20.5916 12.5766 20.5916C12.8886 20.5916 13.1806 20.4703 13.4006 20.2503L20.2539 13.397C20.7086 12.941 20.7086 12.2023 20.2539 11.7463ZM19.8743 18.3518C19.4423 18.1704 18.9303 18.2691 18.589 18.6104C18.5183 18.6931 18.4183 18.8211 18.3503 18.9718C18.2783 19.1344 18.269 19.3091 18.269 19.4264C18.269 19.5438 18.2783 19.7171 18.3503 19.8798C18.417 20.0291 18.497 20.1504 18.6023 20.2558C18.8437 20.4798 19.1237 20.5931 19.4357 20.5931C19.7317 20.5931 20.0223 20.4731 20.261 20.2504C20.473 20.0384 20.589 19.7451 20.589 19.4264C20.589 19.1064 20.473 18.8144 20.2597 18.6011C20.1423 18.4851 20.001 18.3944 19.8743 18.3518Z" fill="#00F6FF"/>
</svg>
